<?xml version="1.0" encoding="UTF-8"?>
<svg id="Calque_1" data-name="Calque 1" xmlns="http://www.w3.org/2000/svg" viewBox="0 0 321.64 195.76">
  <defs>
    <style>
      .cls-1 {
        fill: #009640;
      }

      .cls-1, .cls-2 {
        stroke-width: 0px;
      }

      .cls-2 {
        fill: #fff;
      }
    </style>
  </defs>
  <path class="cls-1" d="M60.68,75.36v63.33h19.88v-63.33h-19.88ZM144.54,1.91v56.91h-63.98V1.91h-19.88v57.56h47.84v15.58h36.03v63.64h19.97V1.91h-19.97Z"/>
  <path class="cls-2" d="M270.25,98.23c-4.08,14.41-12.33,26.57-33.16,26.57-29.43,0-38.29-27.04-38.29-55.3s10.77-53.61,38.11-53.61c21.01,0,29.13,11.68,32.6,26.74h19.79c-2.47-22.66-17.75-42.63-51.7-42.63-40.72,0-59.38,33.03-59.38,69.5,0,40.54,15.89,71.15,58.34,71.15,34.21,0,49.36-20.4,53.48-42.41h-19.79Z"/>
  <path class="cls-2" d="M80.56,75.05v.3h27.96v-.3h-27.96ZM27.43,0v136.78h19.53v-61.42h13.72v-15.89h-13.72V16.15h65.59V0H27.43Z"/>
  <g>
    <path class="cls-2" d="M2.77,187.22v-14.13H.16v-2.45h2.61v-1.97c0-3,1.18-5.42,4.82-5.42.58,0,1.28.08,1.69.22v2.52c-.34-.08-.82-.13-1.36-.13-1.47,0-2,.95-2,2.72v2.05h3.16v2.45h-3.16v14.13h-3.15Z"/>
    <path class="cls-2" d="M24.92,182.49c0,2.13.03,3.92.07,4.73h-3.06c-.1-.47-.14-1.42-.15-2.51-.84,1.78-2.56,2.8-5.02,2.8-2.86,0-5.31-1.41-5.31-5.73v-11.15h3.15v10.58c0,2.07.7,3.71,3.18,3.71s3.96-1.5,3.96-5.02v-9.27h3.2v11.86Z"/>
    <path class="cls-2" d="M27.74,170.64h2.71v-4.76h3.15v4.76h3.42v2.45h-3.42v10.02c0,1.34.35,1.9,1.81,1.9.46,0,.89-.04,1.28-.1v2.22c-.71.24-1.76.29-2.37.29-2.68,0-3.88-.99-3.88-3.81v-10.52h-2.71v-2.45Z"/>
    <path class="cls-2" d="M53.04,182.49c0,2.13.03,3.92.07,4.73h-3.06c-.1-.47-.14-1.42-.15-2.51-.84,1.78-2.56,2.8-5.02,2.8-2.86,0-5.31-1.41-5.31-5.73v-11.15h3.15v10.58c0,2.07.7,3.71,3.18,3.71s3.96-1.5,3.96-5.02v-9.27h3.2v11.86Z"/>
    <path class="cls-2" d="M57.88,176.26c0-2.66-.02-4.74-.07-5.63h3.1c.07.77.08,1.83.08,3.28.77-1.93,2.6-3.54,5.54-3.57v3.13c-3.83.1-5.49,2.09-5.49,5.71v8.04h-3.16v-10.96Z"/>
    <path class="cls-2" d="M81.37,183.42c0,1.14.1,2.87.26,3.8h-2.85c-.12-.56-.24-1.48-.25-2.46-.67,1.61-2.4,2.75-5.17,2.75-4.24,0-5.58-2.7-5.58-5.04,0-2.59,1.78-5.3,7.94-5.3h2.54v-1.53c0-1.53-.46-3.04-3.23-3.04-2.42,0-3.22,1.08-3.49,2.8h-3.08c.24-2.75,1.91-5.08,6.66-5.08,3.71,0,6.25,1.39,6.25,5.23v7.88ZM78.35,179.3h-2.62c-3.99,0-4.74,1.55-4.74,2.98,0,1.52.96,2.79,3.06,2.79,3.27,0,4.3-2.11,4.3-5.43v-.34Z"/>
    <path class="cls-2" d="M97.71,163.5v9.45c.84-1.55,2.52-2.64,5.09-2.64s5.45,1.33,5.45,5.96v10.95h-3.13v-10.45c0-2.39-.96-3.86-3.4-3.86-2.67,0-4.01,1.71-4.01,4.88v9.42h-3.16v-23.72h3.16Z"/>
    <path class="cls-2" d="M127.44,178.67c0,4.81-2.24,8.85-7.85,8.85s-7.64-4.22-7.64-8.77,2.48-8.43,7.86-8.43c5.04,0,7.63,3.63,7.63,8.35ZM115.2,178.7c0,3.76,1.56,6.32,4.56,6.32s4.43-2.51,4.43-6.35c0-3.54-1.49-5.88-4.53-5.88s-4.46,2.41-4.46,5.91Z"/>
    <path class="cls-2" d="M144.55,182.49c0,2.13.03,3.92.07,4.73h-3.06c-.1-.47-.14-1.42-.15-2.51-.84,1.78-2.56,2.8-5.02,2.8-2.86,0-5.31-1.41-5.31-5.73v-11.15h3.15v10.58c0,2.07.7,3.71,3.18,3.71s3.96-1.5,3.96-5.02v-9.27h3.2v11.86Z"/>
    <path class="cls-2" d="M151.01,182.37c.3,1.82,1.7,2.83,3.72,2.83,2.24,0,3.17-1.1,3.17-2.44,0-1.42-1.08-2.13-3.96-2.88-4.3-1.13-5.41-2.62-5.41-4.86s1.53-4.7,5.96-4.7,5.95,2.22,6.17,4.82h-3.1c-.25-1.26-.95-2.51-3.22-2.51-1.81,0-2.68.83-2.68,2.12,0,1.17.66,1.79,3.5,2.5,4.47,1.13,5.88,2.61,5.88,5.25,0,3.14-2.63,5.02-6.42,5.02s-6.4-1.66-6.74-5.14h3.12Z"/>
    <path class="cls-2" d="M166.79,179.54c-.02,3.07,1.33,5.51,4.3,5.51,2.65,0,3.46-1.75,3.78-2.59h3.12c-.62,2.2-2.38,5.07-7.03,5.07-5.44,0-7.37-3.99-7.37-8.64,0-4.08,2.1-8.58,7.54-8.58s7.12,4.04,7.12,7.95c0,.12-.02,1.14-.03,1.28h-11.42ZM175.12,177.39c-.09-2.64-1.19-4.67-4.07-4.67-3.27,0-4.05,2.78-4.19,4.67h8.26Z"/>
    <path class="cls-2" d="M203.61,181.83c-.66,3.26-2.82,5.7-7.08,5.7-4.96,0-7.42-3.1-7.42-8.62,0-4.87,2.62-8.6,7.61-8.6s6.65,3.21,6.87,5.87h-3.18c-.3-1.81-1.32-3.43-3.75-3.43-3.01,0-4.3,2.54-4.3,6.09,0,4.18,1.53,6.27,4.25,6.27,2.32,0,3.27-1.38,3.83-3.27h3.17Z"/>
    <path class="cls-2" d="M221.61,178.67c0,4.81-2.24,8.85-7.85,8.85s-7.64-4.22-7.64-8.77,2.48-8.43,7.86-8.43c5.04,0,7.63,3.63,7.63,8.35ZM209.36,178.7c0,3.76,1.56,6.32,4.56,6.32s4.43-2.51,4.43-6.35c0-3.54-1.49-5.88-4.53-5.88s-4.46,2.41-4.46,5.91Z"/>
    <path class="cls-2" d="M225.31,175.79c0-3.01-.03-4.41-.07-5.16h3.08c.07.48.12,1.7.11,2.28.82-1.41,2.33-2.6,4.85-2.6,2.31,0,3.76,1.01,4.41,2.8.76-1.46,2.52-2.8,5.14-2.8s5.25,1.33,5.25,5.68v11.23h-3.12v-10.71c0-1.92-.66-3.6-3.03-3.6-2.58,0-3.66,2.01-3.66,4.63v9.68h-3.1v-10.86c0-1.93-.84-3.44-2.99-3.44-2.35,0-3.75,1.67-3.75,4.88v9.42h-3.13v-11.43Z"/>
    <path class="cls-2" d="M256.1,185.33v8.42h-3.15v-18.25c0-2.26.01-3.83-.05-4.87h3.1c.05.56.08,1.68.1,2.58.8-1.59,2.45-2.91,5.32-2.91,3.74,0,6.48,2.82,6.48,8.37s-3.12,8.82-7.21,8.82c-2.45,0-3.87-.92-4.6-2.16ZM264.65,178.76c0-3.91-1.63-5.87-4.28-5.87-3.4,0-4.42,2.17-4.42,6.09,0,3.57.74,5.97,4.25,5.97,2.81,0,4.45-2.21,4.45-6.19Z"/>
    <path class="cls-2" d="M283.96,183.42c0,1.14.1,2.87.26,3.8h-2.85c-.12-.56-.24-1.48-.25-2.46-.67,1.61-2.4,2.75-5.17,2.75-4.24,0-5.58-2.7-5.58-5.04,0-2.59,1.78-5.3,7.94-5.3h2.54v-1.53c0-1.53-.46-3.04-3.23-3.04-2.42,0-3.22,1.08-3.49,2.8h-3.08c.24-2.75,1.91-5.08,6.66-5.08,3.71,0,6.25,1.39,6.25,5.23v7.88ZM280.94,179.3h-2.62c-3.99,0-4.74,1.55-4.74,2.98,0,1.52.96,2.79,3.06,2.79,3.27,0,4.3-2.11,4.3-5.43v-.34Z"/>
    <path class="cls-2" d="M288.8,175.82c0-3.45-.03-4.47-.07-5.19h3.1c.05.31.13,1.8.11,2.51.71-1.45,2.29-2.84,5.05-2.84,3.29,0,5.51,1.83,5.51,6.18v10.73h-3.18v-10.23c0-2.31-.78-4.07-3.28-4.07-2.89,0-4.08,1.99-4.08,5.36v8.94h-3.16v-11.4Z"/>
    <path class="cls-2" d="M308.29,170.64c2.56,7.84,3.92,11.84,4.32,13.82h.03c.51-1.87,2.06-7.07,4.25-13.82h3.24l-6.03,17.32c-1.78,5.1-3.35,6.06-6.38,6.06-.36,0-1.11-.05-1.54-.13v-2.56c.4.06,1.07.1,1.5.1,1.96,0,2.63-1.46,3.38-3.64l-6.16-17.15h3.4Z"/>
  </g>
</svg>